<?xml version="1.0" encoding="us-ascii" standalone="no"?><svg xmlns="http://www.w3.org/2000/svg" xmlns:xlink="http://www.w3.org/1999/xlink" contentStyleType="text/css" height="437px" preserveAspectRatio="none" style="width:279px;height:437px;background:#FFFFFF;" version="1.1" viewBox="0 0 279 437" width="279px" zoomAndPan="magnify"><defs/><g><!--class ring_buf--><g id="elem_ring_buf"><rect codeLine="2" fill="#FFFFE0" height="241.7031" id="ring_buf" rx="2.5" ry="2.5" style="stroke:#8B0000;stroke-width:0.5;" width="196" x="76.5" y="7"/><ellipse cx="144.25" cy="23" fill="#ADD1B2" rx="11" ry="11" style="stroke:#181818;stroke-width:1.0;"/><path d="M147.0156,18.875 Q147.1719,18.6563 147.3594,18.5469 Q147.5469,18.4375 147.7656,18.4375 Q148.1406,18.4375 148.375,18.7031 Q148.6094,18.9531 148.6094,19.5625 L148.6094,21.0156 Q148.6094,21.625 148.375,21.8906 Q148.1406,22.1563 147.7656,22.1563 Q147.4219,22.1563 147.2188,21.9531 Q147.0156,21.7656 146.9063,21.25 Q146.8594,20.8906 146.6719,20.7031 Q146.3438,20.3281 145.7344,20.1094 Q145.125,19.8906 144.5,19.8906 Q143.7344,19.8906 143.0938,20.2188 Q142.4688,20.5469 141.9688,21.2969 Q141.4844,22.0469 141.4844,23.0781 L141.4844,24.1719 Q141.4844,25.4063 142.375,26.2344 Q143.2656,27.0469 144.8594,27.0469 Q145.7969,27.0469 146.4531,26.7969 Q146.8438,26.6406 147.2656,26.2031 Q147.5313,25.9375 147.6719,25.8594 Q147.8281,25.7813 148.0313,25.7813 Q148.3594,25.7813 148.6094,26.0469 Q148.875,26.2969 148.875,26.6406 Q148.875,26.9844 148.5313,27.3906 Q148.0313,27.9688 147.2344,28.2969 Q146.1563,28.75 144.8594,28.75 Q143.3438,28.75 142.1406,28.125 Q141.1563,27.625 140.4688,26.5625 Q139.7813,25.4844 139.7813,24.2031 L139.7813,23.0469 Q139.7813,21.7188 140.3906,20.5781 Q141.0156,19.4219 142.1094,18.8125 Q143.2031,18.1875 144.4375,18.1875 Q145.1719,18.1875 145.8125,18.3594 Q146.4688,18.5156 147.0156,18.875 Z " fill="#000000"/><text fill="#000000" font-family="sans-serif" font-size="14" lengthAdjust="spacing" textLength="52" x="164.75" y="28.7285">ring_buf</text><line style="stroke:#8B0000;stroke-width:0.5;" x1="77.5" x2="271.5" y1="39" y2="39"/><rect fill="none" height="6" style="stroke:#C82930;stroke-width:1.0;" width="6" x="84.5" y="50.3047"/><text fill="#000000" font-family="sans-serif" font-size="14" lengthAdjust="spacing" textLength="68" x="96.5" y="57.5332">size: size_t</text><line style="stroke:#8B0000;stroke-width:0.5;" x1="77.5" x2="271.5" y1="64.6094" y2="64.6094"/><text fill="#000000" font-family="sans-serif" font-size="14" lengthAdjust="spacing" textLength="131" x="82.5" y="83.1426">used_space(): size_t</text><text fill="#000000" font-family="sans-serif" font-size="14" lengthAdjust="spacing" textLength="125" x="82.5" y="100.752">free_space(): size_t</text><text fill="#000000" font-family="sans-serif" font-size="14" lengthAdjust="spacing" textLength="101" x="82.5" y="118.3613">is_empty(): bool</text><text fill="#000000" font-family="sans-serif" font-size="14" lengthAdjust="spacing" textLength="81" x="82.5" y="135.9707">is_full(): bool</text><text fill="#000000" font-family="sans-serif" font-size="14" lengthAdjust="spacing" textLength="184" x="82.5" y="153.5801">put_claim(space, size): size_t</text><text fill="#000000" font-family="sans-serif" font-size="14" lengthAdjust="spacing" textLength="107" x="82.5" y="171.1895">put_ack(size): int</text><text fill="#000000" font-family="sans-serif" font-size="14" lengthAdjust="spacing" textLength="134" x="82.5" y="188.7988">put(data, size): size_t</text><text fill="#000000" font-family="sans-serif" font-size="14" lengthAdjust="spacing" textLength="184" x="82.5" y="206.4082">get_claim(space, size): size_t</text><text fill="#000000" font-family="sans-serif" font-size="14" lengthAdjust="spacing" textLength="107" x="82.5" y="224.0176">get_ack(size): int</text><text fill="#000000" font-family="sans-serif" font-size="14" lengthAdjust="spacing" textLength="134" x="82.5" y="241.627">get(data, size): size_t</text></g><!--class uint8_t--><g id="elem_uint8_t"><rect fill="#FFFFE0" height="48" id="uint8_t" rx="2.5" ry="2.5" style="stroke:#8B0000;stroke-width:0.5;" width="75" x="7" y="356"/><ellipse cx="22" cy="372" fill="#ADD1B2" rx="11" ry="11" style="stroke:#181818;stroke-width:1.0;"/><path d="M24.7656,367.875 Q24.9219,367.6563 25.1094,367.5469 Q25.2969,367.4375 25.5156,367.4375 Q25.8906,367.4375 26.125,367.7031 Q26.3594,367.9531 26.3594,368.5625 L26.3594,370.0156 Q26.3594,370.625 26.125,370.8906 Q25.8906,371.1563 25.5156,371.1563 Q25.1719,371.1563 24.9688,370.9531 Q24.7656,370.7656 24.6563,370.25 Q24.6094,369.8906 24.4219,369.7031 Q24.0938,369.3281 23.4844,369.1094 Q22.875,368.8906 22.25,368.8906 Q21.4844,368.8906 20.8438,369.2188 Q20.2188,369.5469 19.7188,370.2969 Q19.2344,371.0469 19.2344,372.0781 L19.2344,373.1719 Q19.2344,374.4063 20.125,375.2344 Q21.0156,376.0469 22.6094,376.0469 Q23.5469,376.0469 24.2031,375.7969 Q24.5938,375.6406 25.0156,375.2031 Q25.2813,374.9375 25.4219,374.8594 Q25.5781,374.7813 25.7813,374.7813 Q26.1094,374.7813 26.3594,375.0469 Q26.625,375.2969 26.625,375.6406 Q26.625,375.9844 26.2813,376.3906 Q25.7813,376.9688 24.9844,377.2969 Q23.9063,377.75 22.6094,377.75 Q21.0938,377.75 19.8906,377.125 Q18.9063,376.625 18.2188,375.5625 Q17.5313,374.4844 17.5313,373.2031 L17.5313,372.0469 Q17.5313,370.7188 18.1406,369.5781 Q18.7656,368.4219 19.8594,367.8125 Q20.9531,367.1875 22.1875,367.1875 Q22.9219,367.1875 23.5625,367.3594 Q24.2188,367.5156 24.7656,367.875 Z " fill="#000000"/><text fill="#000000" font-family="sans-serif" font-size="14" lengthAdjust="spacing" textLength="43" x="36" y="377.7285">uint8_t</text><line style="stroke:#8B0000;stroke-width:0.5;" x1="8" x2="81" y1="388" y2="388"/><line style="stroke:#8B0000;stroke-width:0.5;" x1="8" x2="81" y1="396" y2="396"/></g><!--class zone--><g id="elem_zone"><rect codeLine="18" fill="#FFFFE0" height="100.8281" id="zone" rx="2.5" ry="2.5" style="stroke:#8B0000;stroke-width:0.5;" width="114" x="117.5" y="329.5"/><ellipse cx="155.9" cy="345.5" fill="#ADD1B2" rx="11" ry="11" style="stroke:#181818;stroke-width:1.0;"/><path d="M158.6656,341.375 Q158.8219,341.1563 159.0094,341.0469 Q159.1969,340.9375 159.4156,340.9375 Q159.7906,340.9375 160.025,341.2031 Q160.2594,341.4531 160.2594,342.0625 L160.2594,343.5156 Q160.2594,344.125 160.025,344.3906 Q159.7906,344.6563 159.4156,344.6563 Q159.0719,344.6563 158.8688,344.4531 Q158.6656,344.2656 158.5563,343.75 Q158.5094,343.3906 158.3219,343.2031 Q157.9938,342.8281 157.3844,342.6094 Q156.775,342.3906 156.15,342.3906 Q155.3844,342.3906 154.7438,342.7188 Q154.1188,343.0469 153.6188,343.7969 Q153.1344,344.5469 153.1344,345.5781 L153.1344,346.6719 Q153.1344,347.9063 154.025,348.7344 Q154.9156,349.5469 156.5094,349.5469 Q157.4469,349.5469 158.1031,349.2969 Q158.4938,349.1406 158.9156,348.7031 Q159.1813,348.4375 159.3219,348.3594 Q159.4781,348.2813 159.6813,348.2813 Q160.0094,348.2813 160.2594,348.5469 Q160.525,348.7969 160.525,349.1406 Q160.525,349.4844 160.1813,349.8906 Q159.6813,350.4688 158.8844,350.7969 Q157.8063,351.25 156.5094,351.25 Q154.9938,351.25 153.7906,350.625 Q152.8063,350.125 152.1188,349.0625 Q151.4313,347.9844 151.4313,346.7031 L151.4313,345.5469 Q151.4313,344.2188 152.0406,343.0781 Q152.6656,341.9219 153.7594,341.3125 Q154.8531,340.6875 156.0875,340.6875 Q156.8219,340.6875 157.4625,340.8594 Q158.1188,341.0156 158.6656,341.375 Z " fill="#000000"/><text fill="#000000" font-family="sans-serif" font-size="14" lengthAdjust="spacing" textLength="30" x="175.1" y="351.2285">zone</text><line style="stroke:#8B0000;stroke-width:0.5;" x1="118.5" x2="230.5" y1="361.5" y2="361.5"/><rect fill="none" height="6" style="stroke:#C82930;stroke-width:1.0;" width="6" x="125.5" y="372.8047"/><text fill="#000000" font-family="sans-serif" font-size="14" lengthAdjust="spacing" textLength="87" x="137.5" y="380.0332">base: ptrdiff_t</text><rect fill="none" height="6" style="stroke:#C82930;stroke-width:1.0;" width="6" x="125.5" y="390.4141"/><text fill="#000000" font-family="sans-serif" font-size="14" lengthAdjust="spacing" textLength="88" x="137.5" y="397.6426">head: ptrdiff_t</text><rect fill="none" height="6" style="stroke:#C82930;stroke-width:1.0;" width="6" x="125.5" y="408.0234"/><text fill="#000000" font-family="sans-serif" font-size="14" lengthAdjust="spacing" textLength="74" x="137.5" y="415.252">tail: ptrdiff_t</text><line style="stroke:#8B0000;stroke-width:0.5;" x1="118.5" x2="230.5" y1="422.3281" y2="422.3281"/></g><!--link ring_buf to uint8_t--><g id="link_ring_buf_uint8_t"><path codeLine="15" d="M112.17,248.35 C91.05,289.12 72.319,325.282 59.389,350.252 " fill="none" id="ring_buf-to-uint8_t" style="stroke:#8B0000;stroke-width:1.0;"/><polygon fill="#8B0000" points="56.63,355.58,64.3205,349.4273,58.9291,351.14,57.2164,345.7486,56.63,355.58" style="stroke:#8B0000;stroke-width:1.0;"/><text fill="#000000" font-family="sans-serif" font-size="13" lengthAdjust="spacing" textLength="35" x="20.3211" y="345.2156">space</text></g><!--link ring_buf to zone--><g id="link_ring_buf_zone"><path codeLine="16" d="M161.76,248.35 C161.65,277.04 162.0129,300.0952 163.6829,323.4952 " fill="none" id="ring_buf-to-zone" style="stroke:#8B0000;stroke-width:1.0;"/><polygon fill="#8B0000" points="164.11,329.48,167.4592,320.2181,163.7541,324.4927,159.4795,320.7876,164.11,329.48" style="stroke:#8B0000;stroke-width:1.0;"/><text fill="#000000" font-family="sans-serif" font-size="13" lengthAdjust="spacing" textLength="18" x="143.3833" y="318.7825">put</text></g><!--link ring_buf to zone--><g id="link_ring_buf_zone"><path codeLine="17" d="M187.99,248.35 C188.1,277.04 187.7226,300.0971 185.9526,323.4971 " fill="none" id="ring_buf-to-zone-1" style="stroke:#8B0000;stroke-width:1.0;"/><polygon fill="#8B0000" points="185.5,329.48,190.1674,320.8073,185.8771,324.4942,182.1902,320.2039,185.5,329.48" style="stroke:#8B0000;stroke-width:1.0;"/><text fill="#000000" font-family="sans-serif" font-size="13" lengthAdjust="spacing" textLength="18" x="167.7813" y="318.7825">get</text></g><rect fill="#FFFFFF" height="18.3516" style="stroke:#000000;stroke-width:0.5;" width="54" x="85.17" y="248.35"/><text fill="#000000" font-family="sans-serif" font-size="13" lengthAdjust="spacing" textLength="50" x="87.17" y="262.8451">0..size-1</text><!--SRC=[XP513i8W44NtFSNOLKsaqPrnuKMC8RGCEf7Ifi12ZNSNi3PMcyY2aFS_VoOp2pArzXB1NiYKv1kTrLfO2psP4w-yWdi6uJ1BDzn1lBbBn5kKt7QYnc8v4LIFE2kGvTXqxXfnrRRw3PNNUi8wxtZeWfeYnQnIo3GhMaHzAGQ5p8WBAPoO-tB2lwdHCfCQy6pg8nkdT5YNPQHiSmJ6zf2d6ZduaB4Drj6OnD1c3hVMu1SFXGR-Ma9ylXTG2HiMqBbUab93l-oCGlv09qX_miSJ]--></g></svg>